<svg width="3184" height="1024" viewBox="0 0 3184 1024" fill="none" xmlns="http://www.w3.org/2000/svg">
<g clip-path="url(#clip0_410_5)">
<rect width="1024" height="1024" rx="180" fill="white"/>
<path d="M227.6 201.92C260.72 222.08 301.76 260.24 313.28 291.92C356.48 314.96 374.48 224.24 234.08 194.72L227.6 201.92ZM177.2 368.24C210.32 384.8 250.64 419.36 263.6 448.16C306.08 469.76 321.2 381.92 183.68 360.32L177.2 368.24ZM370.88 324.32C256.4 604.4 256.4 604.4 244.88 628.88C238.4 643.28 235.52 644 228.32 644H197.36V660.56C213.2 662 222.56 663.44 231.2 669.92C246.32 680 251.36 732.56 242.72 805.28C242.72 826.16 247.76 840.56 259.28 840.56C278.72 840.56 289.52 823.28 290.96 795.2C293.84 738.32 276.56 702.32 276.56 672.8C275.84 655.52 280.88 633.92 286.64 613.04C296.72 580.64 355.76 415.76 385.28 327.92L370.88 324.32ZM475.28 682.16V613.04H727.28V682.16H475.28ZM727.28 527.36V591.44H475.28V527.36H727.28ZM720.08 507.2H479.6L444.32 489.2V841.28H450.08C463.76 841.28 475.28 832.64 475.28 829.04V703.76H727.28V780.08C727.28 791.6 723.68 795.92 708.56 795.92C692.72 795.92 610.64 789.44 610.64 789.44V801.68C645.2 805.28 666.08 809.6 677.6 816.08C687.68 821.84 692 831.2 694.16 841.28C752.48 834.8 758.96 813.92 758.96 785.12V535.28C773.36 533.12 786.32 526.64 790.64 521.6L738.8 482.72L720.08 507.2ZM753.92 428H610.64V364.64H780.56C790.64 364.64 797.12 361.04 798.56 353.12C779.12 334.4 748.16 309.2 748.16 309.2L720.08 343.04H610.64V285.44H797.84C807.92 285.44 814.4 281.84 816.56 273.92C796.4 254.48 765.44 230 765.44 230L738.08 263.84H610.64V220.64C627.92 217.76 635.84 210.56 637.28 200.48L578.96 193.28V263.84H401.12L406.88 285.44H578.96V343.04H416.96L422 364.64H578.96V428H377.36L383.12 448.88H814.4C824.48 448.88 831.68 445.28 833.12 437.36C812.96 418.64 782 393.44 782 393.44L753.92 428Z" fill="black"/>
</g>
<rect x="4" y="4" width="1016" height="1016" rx="176" stroke="#D0D7DE" stroke-width="8"/>
<path d="M1450 275.3L1444.6 280.1C1470.4 299.3 1501 332.3 1510.6 361.7C1561.6 389.3 1590.4 290.3 1450 275.3ZM1407.4 410.3L1402 415.7C1426.6 432.5 1455.4 463.7 1463.8 490.7C1511.8 520.1 1543.6 424.7 1407.4 410.3ZM1443.4 649.1C1437.4 649.1 1417 649.1 1417 649.1V661.7C1430.2 662.9 1439.2 664.7 1446.4 670.1C1459.6 679.1 1463.2 728.3 1454.2 789.5C1456.6 809.3 1465.6 820.1 1477 820.1C1499.8 820.1 1514.8 802.7 1516 776.3C1517.8 726.5 1498.6 700.7 1498 672.5C1497.4 658.1 1501.6 638.3 1506.4 619.7C1514.2 590.3 1558.6 455.9 1582 383.9L1571.2 381.5C1471 615.5 1471 615.5 1459.6 636.5C1453.6 648.5 1450.6 649.1 1443.4 649.1ZM1729.6 271.1V332.3H1589.2L1594 349.7H1729.6V398.3H1603.6L1608.4 415.7H1729.6V469.7H1571.2L1576 486.5H1942C1950.4 486.5 1956.4 483.5 1958.2 476.9C1937.2 458.3 1903.6 432.5 1903.6 432.5L1873.6 469.7H1777.6V415.7H1916.8C1925.2 415.7 1930.6 412.7 1931.8 406.1C1912.6 388.1 1880.2 362.3 1880.2 362.3L1852 398.3H1777.6V349.7H1928.2C1936.6 349.7 1942.6 346.7 1944.4 340.1C1923.4 321.5 1891 296.3 1891 296.3L1862.2 332.3H1777.6V295.1C1792.6 292.1 1798 286.1 1799.2 277.7L1729.6 271.1ZM1849.6 622.1V679.1H1669V622.1H1849.6ZM1849.6 604.1H1669V550.7H1849.6V604.1ZM1622.8 533.9V819.5H1630.6C1650.4 819.5 1669 808.1 1669 803.3V696.5H1849.6V754.1C1849.6 763.1 1847.2 767.3 1835.2 767.3C1822 767.3 1753.6 762.5 1753.6 762.5V771.5C1784.2 775.7 1799.8 781.1 1810 788.3C1819 794.9 1822.6 806.9 1824.4 820.7C1888.6 814.7 1897 793.1 1897 760.1V559.7C1909 557.9 1918.6 551.9 1922.2 547.7L1867 505.7L1843.6 533.9H1672.6L1622.8 512.3V533.9ZM2259.4 261.5L2254 265.7C2273.8 281.9 2297.8 311.3 2306.2 334.7C2354.8 362.9 2389 270.5 2259.4 261.5ZM2522.2 531.5L2499.4 563.3H2487.4V522.5C2497.6 520.7 2506 516.5 2509.6 512.3L2461 475.7L2438.8 499.7H2382.4V451.1H2530C2538.4 451.1 2543.8 448.1 2545 441.5C2525.8 422.9 2494 398.9 2494 398.9L2465.2 433.1H2369.2C2389 418.7 2408.8 401.9 2422.6 387.5C2434.6 388.7 2442.4 384.5 2445.4 377.3L2384.8 358.1H2546.2C2554 358.1 2560 355.1 2561.8 348.5C2540.8 328.1 2504.2 299.9 2504.2 299.9L2473 340.7H2116L2059.6 317.9V496.1C2059.6 604.7 2055.4 723.5 2002.6 817.7L2010.4 823.1C2102.2 731.3 2107.6 597.5 2107.6 495.5V358.1H2378.8C2371.6 380.9 2360.8 410.9 2350.6 433.1H2257C2285.2 426.5 2290 371.3 2198.8 362.3L2192.8 366.5C2209.6 380.9 2229.4 407.3 2234.8 428.3C2239 431.3 2243.2 432.5 2247.4 433.1H2119.6L2124.4 451.1H2231.8V499.7H2141.8L2147.2 517.1H2231.8V563.3H2118.4L2123.2 581.3H2231.8V630.5H2139.4L2144.8 648.5H2212.6C2180.8 703.7 2131 755.3 2072.2 791.9L2078.2 801.5C2139.4 775.1 2191.6 739.1 2231.8 695.3V820.1H2239C2261.8 820.1 2275.6 810.5 2275.6 807.5V648.5H2338.6V820.1H2345.8C2368.6 820.1 2382.4 810.5 2382.4 807.5V655.1C2414.2 722.3 2465.8 773.3 2525.8 803.3C2531.2 779.9 2545 765.5 2563 761.3L2564.2 755.9C2501.8 737.3 2434 698.3 2394.4 648.5H2444.2V668.3H2451.4C2465.2 668.3 2487.4 658.1 2487.4 654.5V581.3H2546.8C2555.2 581.3 2560.6 578.3 2562.4 571.7C2547.4 554.9 2522.2 531.5 2522.2 531.5ZM2382.4 631.1V581.3H2444.2V630.5L2382.4 631.1ZM2338.6 630.5H2275.6V581.3H2338.6V630.5ZM2382.4 517.1H2444.2V563.3H2382.4V517.1ZM2338.6 499.7H2275.6V451.1H2338.6V499.7ZM2338.6 517.1V563.3H2275.6V517.1H2338.6ZM2716 266.9C2693.8 311.9 2646.4 380.9 2602.6 426.5L2609.2 433.1C2665.6 398.3 2722.6 346.1 2755 307.7C2768.8 310.7 2774.2 307.7 2777.8 301.7L2716 266.9ZM2987.8 328.1L2992.6 345.5H3142.6C3151 345.5 3156.4 342.5 3158.2 335.9C3137.8 316.1 3104.2 289.7 3104.2 289.7L3074.8 328.1H2987.8ZM2716.6 389.3C2693.8 446.3 2645.2 535.7 2598.4 595.7L2605 602.3C2627.8 583.7 2650 562.1 2671 539.9V820.7H2679.4C2698.6 820.7 2717.2 808.1 2717.8 803.9V520.7C2728.6 519.5 2734 515.9 2736.4 510.5L2706.4 499.1C2726.8 474.5 2744.8 450.5 2758.6 430.1C2772.4 432.5 2777.8 429.5 2781.4 422.9L2716.6 389.3ZM2845.6 280.7V369.5H2761L2765.8 386.9H2845.6V481.1H2749.6L2754.4 498.5H2991.4C2999.8 498.5 3005.8 495.5 3007 488.9L2990.8 473.9H3055V749.3C3055 757.7 3052 761.3 3041.2 761.3C3027.4 761.3 2959.6 756.5 2959.6 756.5V765.5C2990.8 769.1 3006.4 775.7 3016.6 782.9C3025 790.7 3029.2 803.3 3030.4 818.9C3093.4 812.9 3103 786.5 3103 751.1V473.9H3152.2C3160.6 473.9 3166 471.5 3167.8 464.9C3146.8 445.1 3113.2 417.5 3113.2 417.5L3082.6 456.5H2983L2986.6 470.3L2956 444.5L2927.2 481.1H2892.4V386.9H2979.4C2987.8 386.9 2993.2 383.9 2995 377.3C2975.8 358.7 2944.6 334.1 2944.6 334.1L2917 369.5H2892.4V302.9C2905.6 300.5 2910.4 295.1 2911.6 287.3L2845.6 280.7ZM2845.6 509.3V595.1H2758.6L2763.4 612.5H2845.6V703.1C2801.2 709.7 2764.6 715.1 2741.8 717.5L2773 775.7C2779 773.9 2784.4 769.1 2787.4 761.9C2890.6 729.5 2962.6 704.3 3013 685.1L3011.8 676.1L2893 695.3V612.5H2989C2997.4 612.5 3003.4 609.5 3005.2 602.9C2985.4 584.3 2953.6 558.5 2953.6 558.5L2925.4 595.1H2893V529.7C2905 527.3 2909.2 522.5 2909.8 515.3L2845.6 509.3Z" fill="black"/>
<defs>
<clipPath id="clip0_410_5">
<rect width="1024" height="1024" rx="180" fill="white"/>
</clipPath>
</defs>
</svg>
